<svg xmlns="http://www.w3.org/2000/svg" width="218.6" height="46.999" viewBox="0 0 400 86">
  <defs>
    <style>
      .cls-1 {
        fill: #589938;
      }

      .cls-1, .cls-2 {
        fill-rule: evenodd;
      }

      .cls-2 {
        fill: #fff;
      }
    </style>
  </defs>
  <path id="Spaces" class="cls-1" d="M223.518,45.026a8.427,8.427,0,0,0-1.724-2.9,12.416,12.416,0,0,0-3.017-2.365,25.958,25.958,0,0,0-4.44-1.978q-2.026-.731-3.383-1.355a11.586,11.586,0,0,1-2.177-1.247,3.977,3.977,0,0,1-1.164-1.29,3.177,3.177,0,0,1-.345-1.483,2.855,2.855,0,0,1,.367-1.4,3.941,3.941,0,0,1,.969-1.161,4.833,4.833,0,0,1,1.444-.8,5.411,5.411,0,0,1,1.832-.3,9.683,9.683,0,0,1,3.75.666,9.319,9.319,0,0,1,2.888,1.914l4.655-4.687a14.571,14.571,0,0,0-4.827-3.01,18.912,18.912,0,0,0-6.681-1.032,13.045,13.045,0,0,0-4.418.731,11.25,11.25,0,0,0-3.578,2.043,9.528,9.528,0,0,0-2.414,3.16,9.253,9.253,0,0,0-.883,4.042,9.121,9.121,0,0,0,.8,3.956,9.754,9.754,0,0,0,2.112,2.924,12.763,12.763,0,0,0,3.06,2.129,33,33,0,0,0,3.643,1.569q2.154,0.774,3.534,1.4a10.93,10.93,0,0,1,2.155,1.225,3.531,3.531,0,0,1,1.078,1.247,3.415,3.415,0,0,1,.3,1.462,2.826,2.826,0,0,1-.367,1.419,3.668,3.668,0,0,1-.991,1.118,5.026,5.026,0,0,1-1.466.752,5.618,5.618,0,0,1-1.788.279,12.709,12.709,0,0,1-4.311-.709,13.607,13.607,0,0,1-4.051-2.429l-4.742,4.773a28.531,28.531,0,0,0,3,2.129,16.093,16.093,0,0,0,3.017,1.441,17.443,17.443,0,0,0,3.362.817,28.421,28.421,0,0,0,4.03.258,12.637,12.637,0,0,0,4.569-.8,11.652,11.652,0,0,0,3.578-2.128,9.707,9.707,0,0,0,2.349-3.075,8.358,8.358,0,0,0,.841-3.677A11.042,11.042,0,0,0,223.518,45.026Zm29.979-4.9a13.741,13.741,0,0,0-2.694-4.149,12.746,12.746,0,0,0-3.837-2.774,10.356,10.356,0,0,0-4.439-1.011,9.458,9.458,0,0,0-3.125.516,8.574,8.574,0,0,0-2.565,1.376l-0.043-1.29h-6.25v35.69h6.25l-0.043-12.04a8.381,8.381,0,0,0,2.679,1.441,10.106,10.106,0,0,0,3.068.452,11.082,11.082,0,0,0,4.839-1.053,11.991,11.991,0,0,0,3.8-2.838,12.964,12.964,0,0,0,2.485-4.15,14.112,14.112,0,0,0,.885-4.988A13.147,13.147,0,0,0,253.5,40.124Zm-5.843,8.256a7.41,7.41,0,0,1-1.428,2.408,6.291,6.291,0,0,1-2.185,1.569,6.769,6.769,0,0,1-2.747.559,6.588,6.588,0,0,1-4.543-1.849V39.156a6.675,6.675,0,0,1,2.142-1.1,7.558,7.558,0,0,1,2.271-.408,7.242,7.242,0,0,1,2.834.537,6.293,6.293,0,0,1,2.207,1.548,7.2,7.2,0,0,1,1.449,2.43,9.214,9.214,0,0,1,.519,3.182A8.637,8.637,0,0,1,247.654,48.38Zm33.536-4.45a16.856,16.856,0,0,0-.663-5.16,9.445,9.445,0,0,0-5.55-5.762,12.213,12.213,0,0,0-4.606-.817,14.457,14.457,0,0,0-5.366,1.032,14.093,14.093,0,0,0-4.591,2.924l3.664,3.7a8.108,8.108,0,0,1,2.759-1.72,8.221,8.221,0,0,1,2.672-.473,5.892,5.892,0,0,1,4.095,1.29,4.47,4.47,0,0,1,1.423,3.483h-3.578a19.5,19.5,0,0,0-4.591.516,11.694,11.694,0,0,0-3.728,1.57,8,8,0,0,0-2.522,2.623,7.1,7.1,0,0,0-.926,3.676,7.761,7.761,0,0,0,.582,3.053,6.922,6.922,0,0,0,1.659,2.386,7.38,7.38,0,0,0,2.543,1.548,9.465,9.465,0,0,0,3.276.538,16.484,16.484,0,0,0,3.772-.43,10.272,10.272,0,0,0,3.469-1.548v1.333h6.207V43.929Zm-8.944,8.815a9.007,9.007,0,0,1-2.737.43,4.017,4.017,0,0,1-2.607-.817,2.582,2.582,0,0,1-1.013-2.107,2.468,2.468,0,0,1,.5-1.548,3.675,3.675,0,0,1,1.336-1.053,6.892,6.892,0,0,1,1.983-.581,16.434,16.434,0,0,1,2.436-.172h2.844v4.6A13.164,13.164,0,0,1,272.246,52.744Zm34.461-3.1a7.142,7.142,0,0,1-2.414,2.258,6.541,6.541,0,0,1-3.362.881,6.351,6.351,0,0,1-2.715-.6,7.212,7.212,0,0,1-2.242-1.613,7.867,7.867,0,0,1-1.508-8.234A7.468,7.468,0,0,1,296,39.952a7.574,7.574,0,0,1,2.241-1.613,6.221,6.221,0,0,1,2.694-.6,6.293,6.293,0,0,1,3.3.817,8.163,8.163,0,0,1,2.306,2.064l4.181-4.257a11.943,11.943,0,0,0-4.462-3.139,14.355,14.355,0,0,0-5.409-1.032,13.247,13.247,0,0,0-5.17,1.011,12.778,12.778,0,0,0-4.167,2.774,13.241,13.241,0,0,0-2.783,4.149,12.856,12.856,0,0,0-1.027,5.139,13.115,13.115,0,0,0,1.027,5.2,12.741,12.741,0,0,0,2.8,4.149,12.893,12.893,0,0,0,4.189,2.73,13.382,13.382,0,0,0,5.127.989,14.379,14.379,0,0,0,5.6-1.118,12.379,12.379,0,0,0,4.569-3.268Zm34.612-9.7a12.641,12.641,0,0,0-2.931-4.107,13.725,13.725,0,0,0-4.267-2.687,13.438,13.438,0,0,0-5.044-.968,13.015,13.015,0,0,0-5.172,1.032,13.72,13.72,0,0,0-4.224,2.8,12.884,12.884,0,0,0-2.845,4.149,13.072,13.072,0,0,0,0,10.191,13.057,13.057,0,0,0,2.823,4.149,13.422,13.422,0,0,0,9.462,3.827,17.048,17.048,0,0,0,5.237-.8,17.45,17.45,0,0,0,5.064-2.73L335.5,50.9a8.243,8.243,0,0,1-2.8,1.569,10.244,10.244,0,0,1-3.362.581,7.424,7.424,0,0,1-2.521-.409,7.246,7.246,0,0,1-2.048-1.118,6.809,6.809,0,0,1-1.53-1.677,8.569,8.569,0,0,1-.97-2.043h19.914q0.086-.687.151-1.333t0.064-1.247A12.66,12.66,0,0,0,341.319,39.952Zm-19.052,2.859a7.5,7.5,0,0,1,2.586-3.806,6.641,6.641,0,0,1,4.181-1.44,6.791,6.791,0,0,1,4.246,1.441,7.454,7.454,0,0,1,2.608,3.806H322.267Zm44.246,5.139a7.55,7.55,0,0,0-1.7-2.193,11.811,11.811,0,0,0-2.5-1.7,17.472,17.472,0,0,0-3.017-1.2,19.473,19.473,0,0,1-3.772-1.462,2.067,2.067,0,0,1-1.314-1.72,1.623,1.623,0,0,1,.344-1.011,2.6,2.6,0,0,1,.884-0.731,5.144,5.144,0,0,1,1.164-.43,5.071,5.071,0,0,1,1.185-.151,6.062,6.062,0,0,1,3.017.774,8.508,8.508,0,0,1,2.457,2.107l3.707-3.741a11.656,11.656,0,0,0-9.331-4.3,12.161,12.161,0,0,0-3.5.516,10.432,10.432,0,0,0-3.09,1.483,7.687,7.687,0,0,0-2.2,2.408A6.318,6.318,0,0,0,348,39.844a6.17,6.17,0,0,0,.646,2.881,7.758,7.758,0,0,0,1.724,2.215,10.447,10.447,0,0,0,2.457,1.634,18.423,18.423,0,0,0,2.845,1.1,20.339,20.339,0,0,1,3.879,1.483,2.18,2.18,0,0,1,1.38,1.87,1.737,1.737,0,0,1-.97,1.612,4.973,4.973,0,0,1-2.435.538,6.49,6.49,0,0,1-3.147-.8,8.384,8.384,0,0,1-2.586-2.215l-3.75,3.784a10.9,10.9,0,0,0,4.212,3.376,12.907,12.907,0,0,0,5.249,1.053,12.388,12.388,0,0,0,3.413-.495,10.341,10.341,0,0,0,3.11-1.462,7.831,7.831,0,0,0,2.247-2.408,6.278,6.278,0,0,0,.864-3.29A6.026,6.026,0,0,0,366.513,47.95Z"/>
  <path id="finding" class="cls-2" d="M50.268,22a17.735,17.735,0,0,0-4.7-.6q-4.416,0-6.173,2.451t-1.758,7.138v1.892H34.622V38.3h3.017V57.689h6.207V38.3h3.922V32.878H43.846V30.9a4.419,4.419,0,0,1,.754-2.967,3.374,3.374,0,0,1,2.565-.817,9.887,9.887,0,0,1,1.509.108,8.143,8.143,0,0,1,1.595.451V22Zm10.948,0.043H54.751v6.45h6.465v-6.45ZM61.13,32.792H54.837v24.9H61.13v-24.9Zm30.948,9.761a12.218,12.218,0,0,0-.819-4.687,8.952,8.952,0,0,0-2.177-3.225,8.773,8.773,0,0,0-3.1-1.849,11.1,11.1,0,0,0-3.642-.6,9.837,9.837,0,0,0-1.789.172,11.268,11.268,0,0,0-1.81.495,10.8,10.8,0,0,0-1.7.8,6.659,6.659,0,0,0-1.379,1.032l-0.043-1.849H69.406V57.689h6.207v-18.1a7.044,7.044,0,0,1,2.51-1.569,8.325,8.325,0,0,1,2.814-.495,5.344,5.344,0,0,1,1.839.323,4.457,4.457,0,0,1,1.58.989,4.8,4.8,0,0,1,1.1,1.677,6.188,6.188,0,0,1,.412,2.343V57.689h6.207V42.553ZM122.509,22h-6.293V33.781a8.3,8.3,0,0,0-2.587-1.2,11.283,11.283,0,0,0-3.1-.43,10.354,10.354,0,0,0-4.44,1.011,12.742,12.742,0,0,0-3.836,2.773,13.7,13.7,0,0,0-2.694,4.15,13.121,13.121,0,0,0-1.013,5.182,14.127,14.127,0,0,0,.884,4.988,12.951,12.951,0,0,0,2.478,4.15,11.965,11.965,0,0,0,3.793,2.838,11.03,11.03,0,0,0,4.828,1.053,9.913,9.913,0,0,0,3.017-.452,7.875,7.875,0,0,0,2.629-1.44v1.29h6.337V22ZM111.672,52.873a6.875,6.875,0,0,1-2.79-.559,6.291,6.291,0,0,1-2.185-1.569,7.41,7.41,0,0,1-1.428-2.408,8.767,8.767,0,0,1-.519-3.075,9.082,9.082,0,0,1,.519-3.139,7.012,7.012,0,0,1,1.471-2.429,6.5,6.5,0,0,1,2.228-1.548,7.239,7.239,0,0,1,2.834-.537,6.316,6.316,0,0,1,1.082.107,9.376,9.376,0,0,1,1.211.3,8.307,8.307,0,0,1,1.168.473,8.067,8.067,0,0,1,1,.581V51.024a6.853,6.853,0,0,1-4.587,1.849h0Zm25.06-30.831h-6.465v6.45h6.465v-6.45Zm-0.086,10.75h-6.293v24.9h6.293v-24.9Zm30.948,9.761a12.211,12.211,0,0,0-.819-4.687,8.95,8.95,0,0,0-2.176-3.225,8.773,8.773,0,0,0-3.1-1.849,11.1,11.1,0,0,0-3.642-.6,9.843,9.843,0,0,0-1.789.172,11.282,11.282,0,0,0-1.81.495,10.836,10.836,0,0,0-1.7.8,6.659,6.659,0,0,0-1.379,1.032l-0.043-1.849h-6.207V57.689h6.207v-18.1a7.045,7.045,0,0,1,2.51-1.569,8.326,8.326,0,0,1,2.814-.495,5.342,5.342,0,0,1,1.839.323,4.459,4.459,0,0,1,1.58.989,4.8,4.8,0,0,1,1.1,1.677,6.19,6.19,0,0,1,.411,2.343V57.689h6.207V42.553Zm30.215-9.718h-8.534a11.61,11.61,0,0,0-3.923-.645,11.225,11.225,0,0,0-4.094.753,11.043,11.043,0,0,0-3.406,2.064,9.955,9.955,0,0,0-2.327,3.075,8.5,8.5,0,0,0-.862,3.784,8.356,8.356,0,0,0,.477,2.838,8.806,8.806,0,0,0,1.3,2.408A10.935,10.935,0,0,0,178.287,49a10.227,10.227,0,0,0,2.149,1.333,3.475,3.475,0,0,0-1.532.968,2.2,2.2,0,0,0-.582,1.312,2.141,2.141,0,0,0,.409,1.355,2.993,2.993,0,0,0,1.487,1.053,9.117,9.117,0,0,0-4.812,2.6,6.453,6.453,0,0,0-1.476,4.322,6.175,6.175,0,0,0,.816,3.139,7.2,7.2,0,0,0,2.362,2.429,12.415,12.415,0,0,0,3.715,1.57,19.568,19.568,0,0,0,4.874.559,19.133,19.133,0,0,0,4.81-.559,11.814,11.814,0,0,0,3.672-1.591,7.458,7.458,0,0,0,2.34-2.451,6.1,6.1,0,0,0,.816-3.1,6.226,6.226,0,0,0-2.651-5.246,14.547,14.547,0,0,0-7.478-2.408,5.7,5.7,0,0,1-2.134-.516,1.077,1.077,0,0,1-.711-0.839,1.214,1.214,0,0,1,.711-0.9,5.669,5.669,0,0,1,2.134-.666,11.052,11.052,0,0,0,3.728-1.2,10.563,10.563,0,0,0,2.824-2.193,9.473,9.473,0,0,0,1.788-2.86,8.691,8.691,0,0,0,.625-3.246,8.925,8.925,0,0,0-.991-4.128h2.629v-4.9ZM189.6,43.65a4.631,4.631,0,0,1-2.434,2.451,4.348,4.348,0,0,1-1.771.365,4.208,4.208,0,0,1-1.751-.365,4.7,4.7,0,0,1-2.412-2.451,4.426,4.426,0,0,1-.363-1.785,4.279,4.279,0,0,1,.363-1.763,4.766,4.766,0,0,1,2.412-2.43,4.219,4.219,0,0,1,1.751-.365,4.36,4.36,0,0,1,1.771.365,4.69,4.69,0,0,1,1.453.989A4.8,4.8,0,0,1,189.6,40.1a4.3,4.3,0,0,1,.363,1.763A4.442,4.442,0,0,1,189.6,43.65Zm0.046,20.511a11.368,11.368,0,0,1-7.964-.022,2.342,2.342,0,0,1-1.546-2.193,2.314,2.314,0,0,1,1.481-2.15,9.29,9.29,0,0,1,4.058-.731,9.6,9.6,0,0,1,3.928.688,2.288,2.288,0,0,1,1.524,2.193A2.329,2.329,0,0,1,189.647,64.161Z"/>
</svg>
